<svg xmlns="http://www.w3.org/2000/svg" xmlns:xlink="http://www.w3.org/1999/xlink" width="1080" zoomAndPan="magnify" viewBox="0 0 810 809.999993" height="1080" preserveAspectRatio="xMidYMid meet" version="1.0"><defs><clipPath id="7671a11ff8"><path d="M 130 149.761719 L 251 149.761719 L 251 287 L 130 287 Z M 130 149.761719 " clip-rule="nonzero"/></clipPath></defs><path stroke-linecap="butt" transform="matrix(0.840249, 0, 0, 0.840249, 428.709294, 520.084674)" fill-opacity="1" fill="#cccccc" fill-rule="nonzero" stroke-linejoin="miter" d="M 85.755928 100.706401 C 85.755928 100.706401 -115.653867 100.706401 -115.653867 100.706401 C -115.653867 100.706401 -85.756665 -100.703393 -85.756665 -100.703393 C -85.756665 -100.703393 115.65313 -100.703393 115.65313 -100.703393 C 115.65313 -100.703393 85.755928 100.706401 85.755928 100.706401 Z M 85.755928 100.706401 " stroke="#000000" stroke-width="3.428" stroke-opacity="1" stroke-miterlimit="10"/><path stroke-linecap="butt" transform="matrix(0.840249, 0, 0, 0.840249, 430.630998, 508.281666)" fill-opacity="1" fill="#000000" fill-rule="nonzero" stroke-linejoin="miter" d="M 77.016163 79.751721 C 77.016163 79.751721 -103.069038 79.751721 -103.069038 79.751721 C -103.069038 79.751721 -79.303761 -79.752712 -79.303761 -79.752712 C -79.303761 -79.752712 103.068708 -79.752712 103.068708 -79.752712 C 103.068708 -79.752712 77.016163 79.751721 77.016163 79.751721 Z M 77.016163 79.751721 " stroke="#000000" stroke-width="3.428" stroke-opacity="1" stroke-miterlimit="10"/><path stroke-linecap="butt" transform="matrix(0.840249, 0, 0, 0.840249, 351.408091, 595.548278)" fill-opacity="1" fill="#cccccc" fill-rule="nonzero" stroke-linejoin="miter" d="M 130.67894 10.895398 C 130.67894 10.895398 -130.683323 10.895398 -130.683323 10.895398 C -130.683323 10.895398 -130.683323 -10.894089 -130.683323 -10.894089 C -130.683323 -10.894089 130.67894 -10.894089 130.67894 -10.894089 C 130.67894 -10.894089 130.67894 10.895398 130.67894 10.895398 Z M 130.67894 10.895398 " stroke="#000000" stroke-width="3.428" stroke-opacity="1" stroke-miterlimit="10"/><path stroke-linecap="butt" transform="matrix(0.840249, 0, 0, 0.840249, 419.049822, 585.168687)" fill-opacity="1" fill="#000000" fill-rule="nonzero" stroke-linejoin="miter" d="M 100.919889 -1.460615 C 100.919889 -1.460615 -100.922256 -1.460615 -100.922256 -1.460615 C -100.922256 -1.460615 -100.922256 1.458906 -100.922256 1.458906 C -100.922256 1.458906 100.919889 1.458906 100.919889 1.458906 C 100.919889 1.458906 100.919889 -1.460615 100.919889 -1.460615 Z M 100.919889 -1.460615 " stroke="#000000" stroke-width="3.428" stroke-opacity="1" stroke-miterlimit="10"/><path stroke-linecap="butt" transform="matrix(0.840249, 0, 0, 0.840249, 438.820037, 438.55363)" fill-opacity="1" fill="#000000" fill-rule="nonzero" stroke-linejoin="miter" d="M 2.129533 0.00125863 C 2.129533 1.172786 1.176504 2.125815 0.000327375 2.125815 C -1.175849 2.125815 -2.128878 1.172786 -2.128878 0.00125863 C -2.128878 -1.174918 -1.175849 -2.127947 0.000327375 -2.127947 C 1.176504 -2.127947 2.129533 -1.174918 2.129533 0.00125863 Z M 2.129533 0.00125863 " stroke="#000000" stroke-width="3.428" stroke-opacity="1" stroke-miterlimit="10"/><path stroke-linecap="butt" transform="matrix(0.840249, 0, 0, 0.840249, 498.018074, 625.613197)" fill-opacity="1" fill="#e7e7e7" fill-rule="nonzero" stroke-linejoin="miter" d="M 343.640576 26.075891 C 343.640576 26.075891 -343.641758 26.075891 -343.641758 26.075891 C -343.641758 26.075891 -343.641758 -26.075689 -343.641758 -26.075689 C -343.641758 -26.075689 343.640576 -26.075689 343.640576 -26.075689 C 343.640576 -26.075689 343.640576 26.075891 343.640576 26.075891 Z M 343.640576 26.075891 " stroke="#000000" stroke-width="3.428" stroke-opacity="1" stroke-miterlimit="10"/><path stroke-linecap="butt" transform="matrix(0.840249, 0, 0, 0.840249, 496.461963, 661.738811)" fill-opacity="1" fill="#000000" fill-rule="nonzero" stroke-linejoin="miter" d="M 332.466269 16.916788 C 332.466269 16.916788 -332.46406 16.916788 -332.46406 16.916788 C -332.46406 16.916788 -332.46406 -16.918049 -332.46406 -16.918049 C -332.46406 -16.918049 332.466269 -16.918049 332.466269 -16.918049 C 332.466269 -16.918049 332.466269 16.916788 332.466269 16.916788 Z M 332.466269 16.916788 " stroke="#000000" stroke-width="3.428" stroke-opacity="1" stroke-miterlimit="10"/><path stroke-linecap="butt" transform="matrix(0.840249, 0, 0, 0.840249, 601.223421, 491.322067)" fill-opacity="1" fill="#cccccc" fill-rule="nonzero" stroke-linejoin="miter" d="M 40.928178 119.428657 C 40.928178 119.428657 -40.929999 119.428657 -40.929999 119.428657 C -40.929999 119.428657 -40.929999 -44.19007 -40.929999 -44.19007 C -40.929999 -44.19007 40.928178 -119.428185 40.928178 -119.428185 C 40.928178 -119.428185 40.928178 119.428657 40.928178 119.428657 Z M 40.928178 119.428657 " stroke="#000000" stroke-width="3.428" stroke-opacity="1" stroke-miterlimit="10"/><path stroke-linecap="butt" transform="matrix(0.840249, 0, 0, 0.840249, 599.291637, 597.673238)" fill-opacity="1" fill="#cccccc" fill-rule="nonzero" stroke-linejoin="miter" d="M 81.613369 7.143767 C 81.613369 7.143767 -81.6102 7.143767 -81.6102 7.143767 C -81.6102 7.143767 -81.6102 -7.142363 -81.6102 -7.142363 C -81.6102 -7.142363 81.613369 -7.142363 81.613369 -7.142363 C 81.613369 -7.142363 81.613369 7.143767 81.613369 7.143767 Z M 81.613369 7.143767 " stroke="#000000" stroke-width="3.428" stroke-opacity="1" stroke-miterlimit="10"/><path stroke-linecap="round" transform="matrix(0.840249, 0, 0, 0.840249, 610.839165, 445.385686)" fill-opacity="1" fill="#e7e7e7" fill-rule="nonzero" stroke-linejoin="round" d="M 88.376771 133.322947 C 88.376771 133.322947 -191.520735 129.213302 -191.520735 129.213302 C -191.520735 129.213302 -83.805266 -132.860245 -83.805266 -132.860245 C -83.805266 -132.860245 191.517702 -133.320488 191.517702 -133.320488 C 191.517702 -133.320488 88.376771 133.322947 88.376771 133.322947 Z M 88.376771 133.322947 " stroke="#000000" stroke-width="3.428" stroke-opacity="1" stroke-miterlimit="4"/><path stroke-linecap="butt" transform="matrix(0.840249, 0, 0, 0.840249, 614.929485, 429.779734)" fill-opacity="1" fill="#000000" fill-rule="nonzero" stroke-linejoin="miter" d="M 80.403307 98.568198 C 80.403307 98.568198 -156.659053 95.532454 -156.659053 95.532454 C -156.659053 95.532454 -77.023059 -98.225219 -77.023059 -98.225219 C -77.023059 -98.225219 156.659536 -98.56924 156.659536 -98.56924 C 156.659536 -98.56924 80.403307 98.568198 80.403307 98.568198 Z M 80.403307 98.568198 " stroke="#000000" stroke-width="3.428" stroke-opacity="1" stroke-miterlimit="10"/><path stroke-linecap="butt" transform="matrix(0.840249, 0, 0, 0.840249, 577.226686, 532.845521)" fill-opacity="1" fill="#cccccc" fill-rule="nonzero" stroke-linejoin="miter" d="M -128.975125 -29.234515 C -128.975125 -29.234515 151.517442 -29.234515 151.517442 -29.234515 C 151.517442 -29.234515 128.379769 29.234948 128.379769 29.234948 C 128.379769 29.234948 -151.517737 25.125303 -151.517737 25.125303 C -151.517737 25.125303 -128.975125 -29.234515 -128.975125 -29.234515 Z M -128.975125 -29.234515 " stroke="#000000" stroke-width="3.428" stroke-opacity="1" stroke-miterlimit="10"/><path stroke-linecap="round" transform="matrix(0.840249, 0, 0, 0.840249, 736.163174, 445.688182)" fill-opacity="1" fill="#000000" fill-rule="nonzero" stroke-linejoin="round" d="M 42.366662 -133.680496 C 42.366662 -133.680496 60.776383 -117.502255 60.776383 -117.502255 C 60.776383 -117.502255 -37.636597 133.683522 -37.636597 133.683522 C -37.636597 133.683522 -60.77427 132.96294 -60.77427 132.96294 C -60.77427 132.96294 42.366662 -133.680496 42.366662 -133.680496 Z M 42.366662 -133.680496 " stroke="#000000" stroke-width="3.428" stroke-opacity="1" stroke-miterlimit="4"/><path stroke-linecap="butt" transform="matrix(0.840249, 0, 0, 0.840249, 658.890498, 542.131049)" fill-opacity="1" fill="#f2b139" fill-rule="nonzero" stroke-linejoin="miter" d="M 38.576886 22.019383 C 38.576886 22.019383 -27.168136 35.143283 -27.168136 35.143283 C -27.168136 35.143283 -38.576585 -22.019833 -38.576585 -22.019833 C -38.576585 -22.019833 27.168437 -35.143733 27.168437 -35.143733 C 27.168437 -35.143733 38.576886 22.019383 38.576886 22.019383 Z M 38.576886 22.019383 " stroke="#000000" stroke-width="3.428" stroke-opacity="1" stroke-miterlimit="10"/><path stroke-linecap="butt" transform="matrix(0.840249, 0, 0, 0.840249, 489.644187, 547.828816)" fill-opacity="1" fill="#f2b139" fill-rule="nonzero" stroke-linejoin="miter" d="M 17.405965 31.277108 C 17.405965 31.277108 -33.39278 12.885982 -33.39278 12.885982 C -33.39278 12.885982 -17.405145 -31.278754 -17.405145 -31.278754 C -17.405145 -31.278754 33.3936 -12.887628 33.3936 -12.887628 C 33.3936 -12.887628 17.405965 31.277108 17.405965 31.277108 Z M 17.405965 31.277108 " stroke="#000000" stroke-width="3.428" stroke-opacity="1" stroke-miterlimit="10"/><path stroke-linecap="round" transform="matrix(0.840249, 0, 0, 0.840249, 259.108438, 540.257345)" fill-opacity="1" fill="#e1b886" fill-rule="nonzero" stroke-linejoin="round" d="M -54.949115 -31.909628 C -54.949115 -31.909628 99.408964 9.131035 99.408964 9.131035 C 99.408964 9.131035 86.419883 31.887496 86.419883 31.887496 C 86.419883 31.887496 -80.718076 33.830745 -99.406733 2.166953 C -99.406733 2.166953 -54.949115 -31.909628 -54.949115 -31.909628 Z M -54.949115 -31.909628 " stroke="#000000" stroke-width="3.428" stroke-opacity="1" stroke-miterlimit="4"/><path stroke-linecap="round" transform="matrix(0.840249, 0, 0, 0.840249, 360.993677, 561.85264)" fill-opacity="1" fill="#e1b886" fill-rule="nonzero" stroke-linejoin="round" d="M -25.594075 -17.48122 C -25.594075 -17.48122 1.220894 -25.305352 14.130944 -14.464071 C 27.040993 -3.62279 37.105904 18.250376 37.105904 18.250376 C 37.105904 18.250376 26.292517 21.690577 23.498517 19.454447 C -0.536398 0.193973 -37.1048 5.907495 -37.1048 5.907495 " stroke="#000000" stroke-width="3.428" stroke-opacity="1" stroke-miterlimit="4"/><path stroke-linecap="butt" transform="matrix(0.840249, 0, 0, 0.840249, 155.737613, 353.230519)" fill-opacity="1" fill="#e1b886" fill-rule="nonzero" stroke-linejoin="miter" d="M -20.184814 -72.406983 C -20.184814 -72.406983 -25.070829 -12.189527 -50.658482 9.135067 C -50.658482 9.135067 20.125968 115.75339 50.660072 52.184063 C 50.660072 52.184063 -1.26836 9.069982 42.445431 -37.051949 C 42.445431 -37.051949 -20.184814 -72.406983 -20.184814 -72.406983 Z M -20.184814 -72.406983 " stroke="#000000" stroke-width="3.428" stroke-opacity="1" stroke-miterlimit="10"/><path fill="#000000" d="M 150.820312 332.660156 C 150.820312 332.660156 151.234375 339.078125 152.316406 340.859375 C 156.820312 348.273438 177.828125 362.105469 177.828125 362.105469 C 177.828125 362.105469 180.242188 349.488281 186.039062 343.296875 C 186.039062 343.296875 162.492188 338.324219 150.820312 332.660156 Z M 150.820312 332.660156 " fill-opacity="1" fill-rule="nonzero"/><path stroke-linecap="butt" transform="matrix(0.840249, 0, 0, 0.840249, 271.473535, 741.281815)" fill-opacity="1" fill="#e7e7e7" fill-rule="nonzero" stroke-linejoin="miter" d="M 189.414537 80.709222 C 189.414537 80.709222 228.432919 55.646896 222.198718 35.326468 C 201.194899 -33.128873 -28.708124 -72.365755 -28.708124 -72.365755 C -28.708124 -72.365755 -201.057522 -80.705917 -201.057522 -80.705917 C -201.057522 -80.705917 -250.140816 32.188448 -201.057522 79.677162 C -201.057522 79.677162 -131.14242 80.704573 -131.14242 80.704573 C -131.14242 80.704573 189.414537 80.709222 189.414537 80.709222 Z M 189.414537 80.709222 " stroke="#000000" stroke-width="3.428" stroke-opacity="1" stroke-miterlimit="10"/><path stroke-linecap="butt" transform="matrix(0.840249, 0, 0, 0.840249, 156.5552, 522.67845)" fill-opacity="1" fill="#f2b139" fill-rule="nonzero" stroke-linejoin="miter" d="M -49.985794 -199.725413 C -49.985794 -199.725413 -113.015846 -140.419145 -90.529022 -64.251245 C -75.034173 -11.760294 -73.248987 115.508531 -103.387934 163.927029 C -133.531529 212.340878 -10.962762 196.655423 67.771341 199.29601 C 95.441711 200.225793 108.058879 187.799231 108.058879 187.799231 C 108.058879 187.799231 75.544335 127.358627 78.984535 58.419797 C 81.155581 14.887314 102.582451 -21.643897 94.525874 -65.255412 C 85.558108 -113.799431 50.932954 -160.293276 28.320609 -178.247404 C 28.320609 -178.247404 2.560945 -161.562431 -49.985794 -199.725413 Z M -49.985794 -199.725413 " stroke="#000000" stroke-width="3.428" stroke-opacity="1" stroke-miterlimit="10"/><path stroke-linecap="round" transform="matrix(0.840249, 0, 0, 0.840249, 148.381256, 376.417179)" fill="none" stroke-linejoin="round" d="M -40.257792 -12.09555 C -40.257792 -12.09555 -8.85434 25.277115 40.261497 7.123084 " stroke="#000000" stroke-width="1.143" stroke-opacity="1" stroke-miterlimit="4"/><path stroke-linecap="round" transform="matrix(0.840249, 0, 0, 0.840249, 172.196421, 636.758196)" fill="none" stroke-linejoin="round" d="M -43.663973 29.729385 C -43.663973 29.729385 15.842199 25.912622 43.665983 -29.730298 " stroke="#000000" stroke-width="1.143" stroke-opacity="1" stroke-miterlimit="4"/><path stroke-linecap="round" transform="matrix(0.840249, 0, 0, 0.840249, 184.509429, 676.57933)" fill="none" stroke-linejoin="round" d="M -58.317971 3.703755 C -58.317971 3.703755 5.981236 -2.418872 29.472227 -0.745261 C 52.967867 0.932999 58.318774 -3.706623 58.318774 -3.706623 " stroke="#000000" stroke-width="1.143" stroke-opacity="1" stroke-miterlimit="4"/><path stroke-linecap="butt" transform="matrix(0.840249, 0, 0, 0.840249, 50.083887, 692.486937)" fill-opacity="1" fill="#000000" fill-rule="nonzero" stroke-linejoin="miter" d="M -1.638629 -136.774265 C -1.638629 -136.774265 -19.434693 -149.586688 -23.70705 -110.433487 C -27.979407 -71.275636 -8.360967 94.560625 -10.717969 138.781149 C -10.717969 138.781149 24.320939 138.781149 24.320939 138.781149 C 24.320939 138.781149 -1.638629 -136.774265 -1.638629 -136.774265 Z M -1.638629 -136.774265 " stroke="#000000" stroke-width="3.428" stroke-opacity="1" stroke-miterlimit="10"/><path stroke-linecap="butt" transform="matrix(0.840249, 0, 0, 0.840249, 67.516531, 566.776407)" fill-opacity="1" fill="#e7e7e7" fill-rule="nonzero" stroke-linejoin="miter" d="M -9.271024 -188.308025 C -35.449091 -193.756559 -73.630668 -186.699499 -63.133407 -113.795141 C -52.636147 -40.890783 -17.150943 65.611317 -29.270677 146.739614 C -38.577814 209.044435 64.916435 185.302403 64.916435 185.302403 C 64.916435 185.302403 52.327161 -175.477007 -9.271024 -188.308025 Z M -9.271024 -188.308025 " stroke="#000000" stroke-width="3.428" stroke-opacity="1" stroke-miterlimit="10"/><path fill="#000000" d="M 228.832031 205.628906 C 228.832031 205.628906 248.84375 248.933594 247.738281 266.71875 C 247.738281 266.71875 253.433594 279.648438 250.808594 288.914062 C 246.605469 303.761719 239.058594 307.871094 239.058594 307.871094 C 239.058594 307.871094 238.238281 329.96875 226.863281 338.308594 C 215.484375 346.648438 198.34375 352.140625 190.3125 347.699219 C 182.28125 343.257812 118.527344 338.042969 137.972656 301.765625 C 157.421875 265.488281 158.460938 197.097656 228.832031 205.628906 Z M 228.832031 205.628906 " fill-opacity="1" fill-rule="nonzero"/><path stroke-linecap="butt" transform="matrix(0.840249, 0, 0, 0.840249, 175.266688, 270.721442)" fill-opacity="1" fill="#e1b886" fill-rule="nonzero" stroke-linejoin="miter" d="M 12.987816 90.943612 C 5.944703 91.004048 -26.104949 81.022817 -33.4177 74.732829 C -51.264902 59.372798 -85.815673 36.960357 -66.620284 -22.90843 C -61.394898 -39.216841 -43.22692 -105.045543 17.353152 -88.211805 C 71.196939 -73.251581 77.770511 -26.850714 69.063085 4.496951 C 67.366229 10.596333 64.82327 16.788694 62.986947 22.688173 C 44.121631 83.198512 24.810019 90.841336 12.987816 90.943612 Z M 12.987816 90.943612 " stroke="#000000" stroke-width="3.428" stroke-opacity="1" stroke-miterlimit="10"/><path fill="#000000" d="M 251.042969 263.632812 C 243.15625 280.542969 235.066406 268.886719 235.066406 268.886719 C 235.066406 268.886719 232.535156 263.113281 232.535156 263.113281 C 225.8125 272.589844 204.074219 259.691406 204.074219 259.691406 C 205.179688 269.648438 180.117188 271.339844 180.117188 271.339844 C 174.941406 286.460938 152.464844 299.164062 156.78125 317.867188 C 161.101562 336.570312 143.066406 333.089844 114.230469 327.144531 C 85.394531 321.203125 90.851562 282.832031 90.851562 282.832031 C 82.363281 269.960938 103.183594 245.859375 103.183594 245.859375 C 103.5625 217.0625 132.578125 205.757812 132.578125 205.757812 C 137.917969 188.539062 154.128906 183.460938 154.128906 183.460938 C 169.707031 166.710938 198.894531 185.421875 198.894531 185.421875 C 226.726562 193.109375 223.839844 203.007812 223.839844 203.007812 C 223.839844 203.007812 273.734375 214.96875 251.042969 263.632812 Z M 251.042969 263.632812 " fill-opacity="1" fill-rule="nonzero"/><path fill="#000000" d="M 223.378906 293.246094 C 222.324219 295.480469 220.226562 296.699219 218.691406 295.976562 C 217.15625 295.253906 216.765625 292.855469 217.820312 290.621094 C 218.875 288.390625 220.972656 287.167969 222.507812 287.890625 C 224.042969 288.617188 224.433594 291.011719 223.378906 293.246094 Z M 223.378906 293.246094 " fill-opacity="1" fill-rule="nonzero"/><path stroke-linecap="round" transform="matrix(0.840249, 0, 0, 0.840249, 222.921407, 308.504066)" fill-opacity="1" fill="#e1b886" fill-rule="nonzero" stroke-linejoin="miter" d="M -2.230925 -6.987516 C -2.230925 -6.987516 12.07845 -3.654241 6.462555 4.513911 C 4.272914 7.693772 -0.245836 8.344621 -7.767788 3.244756 " stroke="#000000" stroke-width="3.428" stroke-opacity="1" stroke-miterlimit="10"/><path stroke-linecap="round" transform="matrix(0.840249, 0, 0, 0.840249, 199.349069, 324.520902)" fill="none" stroke-linejoin="round" d="M -7.463198 -5.082901 C -7.463198 -5.082901 -2.498152 5.767678 7.464483 5.047095 " stroke="#000000" stroke-width="3.428" stroke-opacity="1" stroke-miterlimit="4"/><path stroke-linecap="round" transform="matrix(0.840249, 0, 0, 0.840249, 219.768801, 278.972701)" fill="none" stroke-linejoin="round" d="M -9.650288 2.552203 C -9.650288 2.552203 -4.238946 -7.085007 9.652026 0.125467 " stroke="#000000" stroke-width="3.428" stroke-opacity="1" stroke-miterlimit="4"/><path stroke-linecap="butt" transform="matrix(0.840249, 0, 0, 0.840249, 168.22961, 277.491335)" fill-opacity="1" fill="#cccccc" fill-rule="nonzero" stroke-linejoin="miter" d="M 8.810724 41.511218 C 8.810724 41.511218 -32.643692 27.108865 -32.643692 27.108865 C -37.47392 25.435254 -40.026176 20.15873 -38.352565 15.333152 C -38.352565 15.333152 -20.589043 -35.804964 -20.589043 -35.804964 C -18.910783 -40.635192 -13.638909 -43.187449 -8.808681 -41.509189 C -8.808681 -41.509189 32.645736 -27.111485 32.645736 -27.111485 C 37.475963 -25.433225 40.02822 -20.16135 38.34996 -15.331122 C 38.34996 -15.331122 20.586438 35.806994 20.586438 35.806994 C 18.912827 40.632572 13.636303 43.189478 8.810724 41.511218 Z M 8.810724 41.511218 " stroke="#000000" stroke-width="3.428" stroke-opacity="1" stroke-miterlimit="10"/><path stroke-linecap="butt" transform="matrix(0.840249, 0, 0, 0.840249, 167.974185, 277.742555)" fill-opacity="1" fill="#e7e7e7" fill-rule="nonzero" stroke-linejoin="miter" d="M 5.469958 31.621514 C 5.469958 31.621514 -23.892618 21.421785 -23.892618 21.421785 C -28.681005 19.757471 -31.219315 14.522788 -29.555002 9.729752 C -29.555002 9.729752 -17.156333 -25.960004 -17.156333 -25.960004 C -15.49202 -30.748392 -10.257337 -33.282053 -5.468949 -31.61774 C -5.468949 -31.61774 23.893627 -21.422659 23.893627 -21.422659 C 28.682014 -19.758346 31.220324 -14.523662 29.556011 -9.730626 C 29.556011 -9.730626 17.157342 25.95913 17.157342 25.95913 C 15.493029 30.747517 10.258346 33.285828 5.469958 31.621514 Z M 5.469958 31.621514 " stroke="#000000" stroke-width="3.428" stroke-opacity="1" stroke-miterlimit="10"/><path fill="#000000" d="M 177.890625 280.847656 C 175.960938 286.410156 170 289.394531 164.582031 287.511719 C 159.160156 285.628906 156.335938 279.59375 158.265625 274.03125 C 160.199219 268.46875 166.160156 265.484375 171.578125 267.367188 C 176.996094 269.246094 179.824219 275.285156 177.890625 280.847656 Z M 177.890625 280.847656 " fill-opacity="1" fill-rule="nonzero"/><path fill="#e7e7e7" d="M 171.492188 240.542969 C 171.492188 240.542969 191.203125 185.566406 191.203125 185.566406 C 192.890625 180.859375 198.171875 178.519531 202.789062 180.433594 C 202.789062 180.433594 204.800781 181.265625 204.800781 181.265625 C 209.265625 183.113281 211.386719 188.234375 209.539062 192.699219 C 209.539062 192.699219 187.441406 246.085938 187.441406 246.085938 C 187.441406 246.085938 171.492188 240.542969 171.492188 240.542969 Z M 171.492188 240.542969 " fill-opacity="1" fill-rule="nonzero"/><g clip-path="url(#7671a11ff8)"><path stroke-linecap="butt" transform="matrix(0.840249, 0, 0, 0.840249, 190.849124, 212.924071)" fill="none" stroke-linejoin="miter" d="M -23.037144 32.869897 C -23.037144 32.869897 0.421305 -32.558998 0.421305 -32.558998 C 2.429638 -38.160946 8.714977 -40.945649 14.21 -38.667678 C 14.21 -38.667678 16.604194 -37.677458 16.604194 -37.677458 C 21.917909 -35.478519 24.442272 -29.383786 22.243333 -24.07007 C 22.243333 -24.07007 -4.055605 39.466714 -4.055605 39.466714 C -4.055605 39.466714 -23.037144 32.869897 -23.037144 32.869897 Z M -23.037144 32.869897 " stroke="#000000" stroke-width="3.428" stroke-opacity="1" stroke-miterlimit="10"/></g><path stroke-linecap="butt" transform="matrix(0.840249, 0, 0, 0.840249, 180.1393, 243.757858)" fill-opacity="1" fill="#cccccc" fill-rule="nonzero" stroke-linejoin="miter" d="M 8.095346 11.970914 C 8.095346 11.970914 -13.773172 4.374579 -13.773172 4.374579 C -13.773172 4.374579 -8.096841 -11.971022 -8.096841 -11.971022 C -8.096841 -11.971022 13.771677 -4.374688 13.771677 -4.374688 C 13.771677 -4.374688 8.095346 11.970914 8.095346 11.970914 Z M 8.095346 11.970914 " stroke="#000000" stroke-width="3.428" stroke-opacity="1" stroke-miterlimit="10"/><path stroke-linecap="round" transform="matrix(0.840121, 0.0146644, -0.0146644, 0.840121, 278.642742, 553.409104)" fill-opacity="1" fill="#e1b886" fill-rule="nonzero" stroke-linejoin="round" d="M -54.950817 -31.907795 C -54.950817 -31.907795 99.407755 9.127614 99.407755 9.127614 C 99.407755 9.127614 86.418733 31.886433 86.418733 31.886433 C 86.418733 31.886433 -80.720099 33.827431 -99.406331 2.164162 C -99.406331 2.164162 -54.950817 -31.907795 -54.950817 -31.907795 Z M -54.950817 -31.907795 " stroke="#000000" stroke-width="3.428" stroke-opacity="1" stroke-miterlimit="4"/><path stroke-linecap="round" transform="matrix(0.840121, 0.0146644, -0.0146644, 0.840121, 380.136371, 576.779175)" fill-opacity="1" fill="#e1b886" fill-rule="nonzero" stroke-linejoin="round" d="M -25.594021 -17.479749 C -25.594021 -17.479749 1.218657 -25.303477 14.129265 -14.462719 C 27.039872 -3.62196 37.106838 18.250854 37.106838 18.250854 C 37.106838 18.250854 26.291385 21.689729 23.499806 19.455489 C -0.53549 0.197802 -37.107415 5.908911 -37.107415 5.908911 " stroke="#000000" stroke-width="3.428" stroke-opacity="1" stroke-miterlimit="4"/><path stroke-linecap="round" transform="matrix(0.840249, 0, 0, 0.840249, 176.833763, 477.641996)" fill-opacity="1" fill="#e1b886" fill-rule="nonzero" stroke-linejoin="round" d="M 24.311788 94.431873 C 24.311788 94.431873 -49.773395 -1.879795 -64.412843 -39.219918 C -69.680069 -52.659944 -71.325787 -81.711043 -41.684275 -92.315229 C -17.22166 -101.069145 0.360554 -80.599952 6.427394 -68.652228 C 22.45222 -37.10001 67.453763 59.058244 67.453763 59.058244 " stroke="#000000" stroke-width="3.428" stroke-opacity="1" stroke-miterlimit="4"/><path stroke-linecap="butt" transform="matrix(0.764627, 0, 0, 0.764627, 439.933301, 473.525204)" fill-opacity="1" fill="#e7e7e7" fill-rule="nonzero" stroke-linejoin="miter" d="M 363.499911 -149.49828 C 363.499911 -149.49828 294.501771 -149.49828 294.501771 -149.49828 C 294.501771 -149.49828 271.502391 -99.499406 271.502391 -99.499406 C 271.502391 -99.499406 341.001184 -98.998753 341.001184 -98.998753 C 341.001184 -98.998753 363.499911 -149.49828 363.499911 -149.49828 Z M 363.499911 -149.49828 " stroke="#e7e7e7" stroke-width="5" stroke-opacity="1" stroke-miterlimit="4"/><path stroke-linecap="butt" transform="matrix(0.764627, 0, 0, 0.764627, 439.933301, 473.525204)" fill="none" stroke-linejoin="miter" d="M 285.500237 -143.750989 C 285.500237 -143.750989 366.749046 -143.250336 366.749046 -143.250336 " stroke="#000000" stroke-width="4" stroke-opacity="1" stroke-miterlimit="4"/><path stroke-linecap="butt" transform="matrix(1.604876, 0, 0, 1.604876, 72.980486, 651.725603)" fill-opacity="1" fill="#e7e7e7" fill-rule="nonzero" stroke-linejoin="miter" d="M 363.499266 -149.499898 C 363.499266 -149.499898 294.500535 -149.499898 294.500535 -149.499898 C 294.500535 -149.499898 271.499335 -99.500888 271.499335 -99.500888 C 271.499335 -99.500888 340.999468 -98.999487 340.999468 -98.999487 C 340.999468 -98.999487 363.499266 -149.499898 363.499266 -149.499898 Z M 363.499266 -149.499898 " stroke="#e7e7e7" stroke-width="5" stroke-opacity="1" stroke-miterlimit="4"/><path stroke-linecap="butt" transform="matrix(1.604876, 0, 0, 1.604876, 72.744573, 651.447875)" fill="none" stroke-linejoin="miter" d="M 285.5006 -143.750576 C 285.5006 -143.750576 366.7496 -143.249174 366.7496 -143.249174 " stroke="#000000" stroke-width="2" stroke-opacity="1" stroke-miterlimit="4"/><path fill="#000000" d="M 610.441406 449.3125 C 610.441406 449.3125 617.792969 462.859375 617.792969 462.859375 C 617.792969 462.859375 625.355469 452.671875 625.355469 452.671875 C 625.355469 452.671875 610.441406 449.3125 610.441406 449.3125 Z M 610.441406 449.3125 " fill-opacity="1" fill-rule="nonzero"/><path fill="#000000" d="M 621.785156 455.402344 C 621.785156 455.402344 618.84375 457.925781 618.84375 457.925781 C 618.84375 457.925781 624.09375 461.390625 624.09375 461.390625 C 624.09375 461.390625 626.195312 457.714844 626.195312 457.714844 C 626.195312 457.714844 621.785156 455.402344 621.785156 455.402344 Z M 621.785156 455.402344 " fill-opacity="1" fill-rule="nonzero"/></svg>